# xmcd CD database file
#
# Track frame offsets:
#	150
#	15380
#	47148
#	66265
#	98998
#	127530
#	150860
#	188368
#	226553
#	272183
#	304017
#
# Disc length: 4132 seconds
#
# Revision: 0
# Processed by: cddbd v1.5.2PL0 Copyright (c) Steve Scherf et al.
# Submitted via: CDex 1.70beta3
#
DISCID=7410220b
DTITLE=タカヒロ - 真剣で私に恋しなさい　vol3
DYEAR=2010
DGENRE=ドラマCD
TTITLE0=「第０話　今回もカオスにお届けします」
TTITLE1=第１話　クリス、その華麗なる朝！
TTITLE2=第２話　風間ファミリー今昔物語
TTITLE3=第３話　父の愛は無限大
TTITLE4=第４話　リスのTシャツって、可愛いよな！
TTITLE5=第５話　ワン子の　すごい　新技！
TTITLE6=第６話　対決！　松風　対　赤兎馬
TTITLE7=第７話　オタクの夜
TTITLE8=第８話　大人の夜
TTITLE9=第９話　神に愛された男
TTITLE10=１０　次回予告
EXTD=YEAR: 2010
EXTT0=
EXTT1=
EXTT2=
EXTT3=
EXTT4=
EXTT5=
EXTT6=
EXTT7=
EXTT8=
EXTT9=
EXTT10=
PLAYORDER=
